<?xml version="1.0" encoding="UTF-8" standalone="no"?>
<!DOCTYPE svg PUBLIC "-//W3C//DTD SVG 1.1//EN"
 "http://www.w3.org/Graphics/SVG/1.1/DTD/svg11.dtd">
<!-- Generated by graphviz version 2.34.0 (20131031.2337)
 -->
<!-- Title: lib/mcchunk.h Pages: 1 -->
<svg width="335pt" height="196pt"
 viewBox="0.00 0.00 334.51 196.00" xmlns="http://www.w3.org/2000/svg" xmlns:xlink="http://www.w3.org/1999/xlink">
<g id="graph0" class="graph" transform="scale(1 1) rotate(0) translate(4 192)">
<title>lib/mcchunk.h</title>
<polygon fill="white" stroke="white" points="-4,4 -4,-192 330.509,-192 330.509,4 -4,4"/>
<!-- Node1 -->
<g id="node1" class="node"><title>Node1</title>
<polygon fill="#bfbfbf" stroke="black" points="83.5,-168.5 83.5,-187.5 160.5,-187.5 160.5,-168.5 83.5,-168.5"/>
<text text-anchor="middle" x="122" y="-175.5" font-family="Helvetica,sans-Serif" font-size="10.00">lib/mcchunk.h</text>
</g>
<!-- Node2 -->
<g id="node2" class="node"><title>Node2</title>
<polygon fill="white" stroke="#bfbfbf" points="0,-56.5 0,-75.5 46,-75.5 46,-56.5 0,-56.5"/>
<text text-anchor="middle" x="23" y="-63.5" font-family="Helvetica,sans-Serif" font-size="10.00">stdio.h</text>
</g>
<!-- Node1&#45;&gt;Node2 -->
<g id="edge1" class="edge"><title>Node1&#45;&gt;Node2</title>
<path fill="none" stroke="midnightblue" d="M114.232,-168.368C97.6769,-149.974 58.7041,-106.671 37.4467,-83.0519"/>
<polygon fill="midnightblue" stroke="midnightblue" points="40.0235,-80.683 30.7323,-75.5914 34.8204,-85.3658 40.0235,-80.683"/>
</g>
<!-- Node3 -->
<g id="node3" class="node"><title>Node3</title>
<polygon fill="white" stroke="#bfbfbf" points="188,-112.5 188,-131.5 236,-131.5 236,-112.5 188,-112.5"/>
<text text-anchor="middle" x="212" y="-119.5" font-family="Helvetica,sans-Serif" font-size="10.00">stdlib.h</text>
</g>
<!-- Node1&#45;&gt;Node3 -->
<g id="edge2" class="edge"><title>Node1&#45;&gt;Node3</title>
<path fill="none" stroke="midnightblue" d="M136.46,-168.324C150.5,-159.9 172.048,-146.971 188.543,-137.074"/>
<polygon fill="midnightblue" stroke="midnightblue" points="190.802,-139.801 197.576,-131.655 187.2,-133.798 190.802,-139.801"/>
</g>
<!-- Node4 -->
<g id="node4" class="node"><title>Node4</title>
<polygon fill="white" stroke="#bfbfbf" points="64.5,-56.5 64.5,-75.5 113.5,-75.5 113.5,-56.5 64.5,-56.5"/>
<text text-anchor="middle" x="89" y="-63.5" font-family="Helvetica,sans-Serif" font-size="10.00">stdint.h</text>
</g>
<!-- Node1&#45;&gt;Node4 -->
<g id="edge3" class="edge"><title>Node1&#45;&gt;Node4</title>
<path fill="none" stroke="midnightblue" d="M119.411,-168.368C114.061,-150.537 101.689,-109.295 94.4815,-85.2717"/>
<polygon fill="midnightblue" stroke="midnightblue" points="97.8034,-84.1639 91.5774,-75.5914 91.0986,-86.1754 97.8034,-84.1639"/>
</g>
<!-- Node5 -->
<g id="node5" class="node"><title>Node5</title>
<g id="a_node5"><a xlink:href="nbt_8h.html" target="_top" xlink:title="nbt.h">
<polygon fill="white" stroke="black" points="132,-112.5 132,-131.5 170,-131.5 170,-112.5 132,-112.5"/>
<text text-anchor="middle" x="151" y="-119.5" font-family="Helvetica,sans-Serif" font-size="10.00">nbt.h</text>
</a>
</g>
</g>
<!-- Node1&#45;&gt;Node5 -->
<g id="edge4" class="edge"><title>Node1&#45;&gt;Node5</title>
<path fill="none" stroke="midnightblue" d="M126.789,-168.083C130.758,-160.691 136.525,-149.953 141.435,-140.811"/>
<polygon fill="midnightblue" stroke="midnightblue" points="144.653,-142.217 146.3,-131.751 138.486,-138.905 144.653,-142.217"/>
</g>
<!-- Node5&#45;&gt;Node2 -->
<g id="edge8" class="edge"><title>Node5&#45;&gt;Node2</title>
<path fill="none" stroke="midnightblue" d="M131.837,-112.916C110.996,-104.123 77.4081,-89.9534 53.0517,-79.6781"/>
<polygon fill="midnightblue" stroke="midnightblue" points="54.1418,-76.3393 43.5676,-75.677 51.4208,-82.7888 54.1418,-76.3393"/>
</g>
<!-- Node5&#45;&gt;Node4 -->
<g id="edge7" class="edge"><title>Node5&#45;&gt;Node4</title>
<path fill="none" stroke="midnightblue" d="M141.039,-112.324C131.873,-104.341 118.063,-92.3128 106.972,-82.6529"/>
<polygon fill="midnightblue" stroke="midnightblue" points="108.982,-79.7624 99.1426,-75.8339 104.385,-85.041 108.982,-79.7624"/>
</g>
<!-- Node6 -->
<g id="node6" class="node"><title>Node6</title>
<polygon fill="white" stroke="#bfbfbf" points="256,-56.5 256,-75.5 312,-75.5 312,-56.5 256,-56.5"/>
<text text-anchor="middle" x="284" y="-63.5" font-family="Helvetica,sans-Serif" font-size="10.00">stdbool.h</text>
</g>
<!-- Node5&#45;&gt;Node6 -->
<g id="edge5" class="edge"><title>Node5&#45;&gt;Node6</title>
<path fill="none" stroke="midnightblue" d="M170.056,-113.263C191.838,-104.419 227.791,-89.8218 253.486,-79.3891"/>
<polygon fill="midnightblue" stroke="midnightblue" points="254.832,-82.6201 262.781,-75.6152 252.199,-76.1343 254.832,-82.6201"/>
</g>
<!-- Node7 -->
<g id="node7" class="node"><title>Node7</title>
<polygon fill="white" stroke="#bfbfbf" points="193,-0.5 193,-19.5 245,-19.5 245,-0.5 193,-0.5"/>
<text text-anchor="middle" x="219" y="-7.5" font-family="Helvetica,sans-Serif" font-size="10.00">stddef.h</text>
</g>
<!-- Node5&#45;&gt;Node7 -->
<g id="edge6" class="edge"><title>Node5&#45;&gt;Node7</title>
<path fill="none" stroke="midnightblue" d="M170.231,-114.644C173.16,-113.726 176.154,-112.817 179,-112 241.579,-94.0294 281.017,-127.385 321,-76 342.511,-48.3546 292.677,-29.138 255.344,-19.1041"/>
<polygon fill="midnightblue" stroke="midnightblue" points="255.771,-15.6008 245.216,-16.5182 254.039,-22.3832 255.771,-15.6008"/>
</g>
<!-- Node8 -->
<g id="node8" class="node"><title>Node8</title>
<g id="a_node8"><a xlink:href="buffer_8h.html" target="_top" xlink:title="buffer.h">
<polygon fill="white" stroke="black" points="132,-56.5 132,-75.5 182,-75.5 182,-56.5 132,-56.5"/>
<text text-anchor="middle" x="157" y="-63.5" font-family="Helvetica,sans-Serif" font-size="10.00">buffer.h</text>
</a>
</g>
</g>
<!-- Node5&#45;&gt;Node8 -->
<g id="edge9" class="edge"><title>Node5&#45;&gt;Node8</title>
<path fill="none" stroke="midnightblue" d="M151.991,-112.083C152.786,-104.927 153.929,-94.6353 154.923,-85.6911"/>
<polygon fill="midnightblue" stroke="midnightblue" points="158.402,-86.0765 156.028,-75.7511 151.445,-85.3034 158.402,-86.0765"/>
</g>
<!-- Node9 -->
<g id="node9" class="node"><title>Node9</title>
<g id="a_node9"><a xlink:href="list_8h.html" target="_top" xlink:title="list.h">
<polygon fill="white" stroke="black" points="200,-56.5 200,-75.5 238,-75.5 238,-56.5 200,-56.5"/>
<text text-anchor="middle" x="219" y="-63.5" font-family="Helvetica,sans-Serif" font-size="10.00">list.h</text>
</a>
</g>
</g>
<!-- Node5&#45;&gt;Node9 -->
<g id="edge11" class="edge"><title>Node5&#45;&gt;Node9</title>
<path fill="none" stroke="midnightblue" d="M161.925,-112.324C172.175,-104.185 187.721,-91.8395 200.001,-82.0874"/>
<polygon fill="midnightblue" stroke="midnightblue" points="202.221,-84.7937 207.876,-75.8339 197.868,-79.3119 202.221,-84.7937"/>
</g>
<!-- Node8&#45;&gt;Node7 -->
<g id="edge10" class="edge"><title>Node8&#45;&gt;Node7</title>
<path fill="none" stroke="midnightblue" d="M166.961,-56.324C176.127,-48.3414 189.937,-36.3128 201.028,-26.6529"/>
<polygon fill="midnightblue" stroke="midnightblue" points="203.615,-29.041 208.857,-19.8339 199.018,-23.7624 203.615,-29.041"/>
</g>
<!-- Node9&#45;&gt;Node7 -->
<g id="edge12" class="edge"><title>Node9&#45;&gt;Node7</title>
<path fill="none" stroke="midnightblue" d="M219,-56.083C219,-49.0059 219,-38.8611 219,-29.9865"/>
<polygon fill="midnightblue" stroke="midnightblue" points="222.5,-29.751 219,-19.7511 215.5,-29.7511 222.5,-29.751"/>
</g>
</g>
</svg>
