<?xml version="1.0" encoding="UTF-8" standalone="no"?>
<!DOCTYPE svg PUBLIC "-//W3C//DTD SVG 1.1//EN"
 "http://www.w3.org/Graphics/SVG/1.1/DTD/svg11.dtd">
<!-- Generated by graphviz version 2.30.1 (20130712.1527)
 -->
<!-- Title: lib/mcchunk.h Pages: 1 -->
<svg width="357pt" height="196pt"
 viewBox="0.00 0.00 357.00 196.00" xmlns="http://www.w3.org/2000/svg" xmlns:xlink="http://www.w3.org/1999/xlink">
<g id="graph0" class="graph" transform="scale(1 1) rotate(0) translate(4 192)">
<title>lib/mcchunk.h</title>
<polygon fill="white" stroke="white" points="-4,5 -4,-192 354,-192 354,5 -4,5"/>
<!-- Node1 -->
<g id="node1" class="node"><title>Node1</title>
<polygon fill="#bfbfbf" stroke="black" points="158.5,-168.5 158.5,-187.5 235.5,-187.5 235.5,-168.5 158.5,-168.5"/>
<text text-anchor="middle" x="197" y="-175.5" font-family="Helvetica,sans-Serif" font-size="10.00">lib/mcchunk.h</text>
</g>
<!-- Node2 -->
<g id="node2" class="node"><title>Node2</title>
<polygon fill="white" stroke="#bfbfbf" points="0,-56.5 0,-75.5 46,-75.5 46,-56.5 0,-56.5"/>
<text text-anchor="middle" x="23" y="-63.5" font-family="Helvetica,sans-Serif" font-size="10.00">stdio.h</text>
</g>
<!-- Node1&#45;&gt;Node2 -->
<g id="edge1" class="edge"><title>Node1&#45;&gt;Node2</title>
<path fill="none" stroke="midnightblue" d="M183.347,-168.368C153.361,-149.412 81.5282,-104.001 45.0543,-80.9424"/>
<polygon fill="midnightblue" stroke="midnightblue" points="46.9129,-77.9766 36.5901,-75.5914 43.1724,-83.8935 46.9129,-77.9766"/>
</g>
<!-- Node3 -->
<g id="node3" class="node"><title>Node3</title>
<polygon fill="white" stroke="#bfbfbf" points="249,-112.5 249,-131.5 297,-131.5 297,-112.5 249,-112.5"/>
<text text-anchor="middle" x="273" y="-119.5" font-family="Helvetica,sans-Serif" font-size="10.00">stdlib.h</text>
</g>
<!-- Node1&#45;&gt;Node3 -->
<g id="edge2" class="edge"><title>Node1&#45;&gt;Node3</title>
<path fill="none" stroke="midnightblue" d="M209.211,-168.324C220.776,-160.107 238.375,-147.602 252.161,-137.807"/>
<polygon fill="midnightblue" stroke="midnightblue" points="254.443,-140.479 260.567,-131.834 250.388,-134.773 254.443,-140.479"/>
</g>
<!-- Node4 -->
<g id="node4" class="node"><title>Node4</title>
<polygon fill="white" stroke="#bfbfbf" points="300.5,-56.5 300.5,-75.5 349.5,-75.5 349.5,-56.5 300.5,-56.5"/>
<text text-anchor="middle" x="325" y="-63.5" font-family="Helvetica,sans-Serif" font-size="10.00">stdint.h</text>
</g>
<!-- Node1&#45;&gt;Node4 -->
<g id="edge3" class="edge"><title>Node1&#45;&gt;Node4</title>
<path fill="none" stroke="midnightblue" d="M200.915,-168.436C207.413,-154.987 221.558,-128.725 240,-112 255.199,-98.216 275.391,-87.2965 292.281,-79.6674"/>
<polygon fill="midnightblue" stroke="midnightblue" points="293.992,-82.7408 301.782,-75.559 291.214,-76.3158 293.992,-82.7408"/>
</g>
<!-- Node5 -->
<g id="node5" class="node"><title>Node5</title>
<g id="a_node5"><a xlink:href="nbt_8h.html" target="_top" xlink:title="nbt.h">
<polygon fill="white" stroke="black" points="155,-112.5 155,-131.5 193,-131.5 193,-112.5 155,-112.5"/>
<text text-anchor="middle" x="174" y="-119.5" font-family="Helvetica,sans-Serif" font-size="10.00">nbt.h</text>
</a>
</g>
</g>
<!-- Node1&#45;&gt;Node5 -->
<g id="edge4" class="edge"><title>Node1&#45;&gt;Node5</title>
<path fill="none" stroke="midnightblue" d="M193.202,-168.083C190.087,-160.77 185.577,-150.181 181.711,-141.103"/>
<polygon fill="midnightblue" stroke="midnightblue" points="184.866,-139.58 177.727,-131.751 178.426,-142.323 184.866,-139.58"/>
</g>
<!-- Node6 -->
<g id="node6" class="node"><title>Node6</title>
<polygon fill="white" stroke="#bfbfbf" points="64,-56.5 64,-75.5 120,-75.5 120,-56.5 64,-56.5"/>
<text text-anchor="middle" x="92" y="-63.5" font-family="Helvetica,sans-Serif" font-size="10.00">stdbool.h</text>
</g>
<!-- Node5&#45;&gt;Node6 -->
<g id="edge5" class="edge"><title>Node5&#45;&gt;Node6</title>
<path fill="none" stroke="midnightblue" d="M160.825,-112.324C148.153,-103.979 128.767,-91.2122 113.794,-81.3524"/>
<polygon fill="midnightblue" stroke="midnightblue" points="115.419,-78.2313 105.142,-75.6545 111.569,-84.0776 115.419,-78.2313"/>
</g>
<!-- Node7 -->
<g id="node7" class="node"><title>Node7</title>
<polygon fill="white" stroke="#bfbfbf" points="175,-0.5 175,-19.5 227,-19.5 227,-0.5 175,-0.5"/>
<text text-anchor="middle" x="201" y="-7.5" font-family="Helvetica,sans-Serif" font-size="10.00">stddef.h</text>
</g>
<!-- Node5&#45;&gt;Node7 -->
<g id="edge6" class="edge"><title>Node5&#45;&gt;Node7</title>
<path fill="none" stroke="midnightblue" d="M170.798,-112.337C166.604,-99.636 160.505,-75.3701 167,-56 170.604,-45.2512 177.903,-35.0204 184.817,-27.0378"/>
<polygon fill="midnightblue" stroke="midnightblue" points="187.477,-29.3168 191.712,-19.6053 182.345,-24.5561 187.477,-29.3168"/>
</g>
<!-- Node5&#45;&gt;Node4 -->
<g id="edge7" class="edge"><title>Node5&#45;&gt;Node4</title>
<path fill="none" stroke="midnightblue" d="M193.124,-114.161C217.794,-105.339 261.12,-89.8444 291.355,-79.032"/>
<polygon fill="midnightblue" stroke="midnightblue" points="292.823,-82.2241 301.061,-75.5611 290.466,-75.6329 292.823,-82.2241"/>
</g>
<!-- Node5&#45;&gt;Node2 -->
<g id="edge8" class="edge"><title>Node5&#45;&gt;Node2</title>
<path fill="none" stroke="midnightblue" d="M154.876,-114.161C129.992,-105.262 86.1269,-89.5752 55.8616,-78.7518"/>
<polygon fill="midnightblue" stroke="midnightblue" points="56.7608,-75.3564 46.1662,-75.2846 54.4036,-81.9476 56.7608,-75.3564"/>
</g>
<!-- Node8 -->
<g id="node8" class="node"><title>Node8</title>
<g id="a_node8"><a xlink:href="buffer_8h.html" target="_top" xlink:title="buffer.h">
<polygon fill="white" stroke="black" points="176,-56.5 176,-75.5 226,-75.5 226,-56.5 176,-56.5"/>
<text text-anchor="middle" x="201" y="-63.5" font-family="Helvetica,sans-Serif" font-size="10.00">buffer.h</text>
</a>
</g>
</g>
<!-- Node5&#45;&gt;Node8 -->
<g id="edge9" class="edge"><title>Node5&#45;&gt;Node8</title>
<path fill="none" stroke="midnightblue" d="M178.459,-112.083C182.154,-104.691 187.523,-93.9533 192.094,-84.8111"/>
<polygon fill="midnightblue" stroke="midnightblue" points="195.283,-86.2606 196.624,-75.7511 189.022,-83.1301 195.283,-86.2606"/>
</g>
<!-- Node9 -->
<g id="node9" class="node"><title>Node9</title>
<g id="a_node9"><a xlink:href="list_8h.html" target="_top" xlink:title="list.h">
<polygon fill="white" stroke="black" points="244,-56.5 244,-75.5 282,-75.5 282,-56.5 244,-56.5"/>
<text text-anchor="middle" x="263" y="-63.5" font-family="Helvetica,sans-Serif" font-size="10.00">list.h</text>
</a>
</g>
</g>
<!-- Node5&#45;&gt;Node9 -->
<g id="edge11" class="edge"><title>Node5&#45;&gt;Node9</title>
<path fill="none" stroke="midnightblue" d="M188.299,-112.324C202.183,-103.9 223.492,-90.9709 239.804,-81.0741"/>
<polygon fill="midnightblue" stroke="midnightblue" points="242.002,-83.8341 248.736,-75.6545 238.371,-77.8495 242.002,-83.8341"/>
</g>
<!-- Node8&#45;&gt;Node7 -->
<g id="edge10" class="edge"><title>Node8&#45;&gt;Node7</title>
<path fill="none" stroke="midnightblue" d="M201,-56.083C201,-49.0059 201,-38.8611 201,-29.9865"/>
<polygon fill="midnightblue" stroke="midnightblue" points="204.5,-29.751 201,-19.7511 197.5,-29.7511 204.5,-29.751"/>
</g>
<!-- Node9&#45;&gt;Node7 -->
<g id="edge12" class="edge"><title>Node9&#45;&gt;Node7</title>
<path fill="none" stroke="midnightblue" d="M253.039,-56.324C243.873,-48.3414 230.063,-36.3128 218.972,-26.6529"/>
<polygon fill="midnightblue" stroke="midnightblue" points="220.982,-23.7624 211.143,-19.8339 216.385,-29.041 220.982,-23.7624"/>
</g>
</g>
</svg>
