<?xml version="1.0" encoding="UTF-8" standalone="no"?>
<!DOCTYPE svg PUBLIC "-//W3C//DTD SVG 1.1//EN"
 "http://www.w3.org/Graphics/SVG/1.1/DTD/svg11.dtd">
<!-- Generated by graphviz version 2.30.1 (20130712.1527)
 -->
<!-- Title: cNBT/nbt.h Pages: 1 -->
<svg width="358pt" height="140pt"
 viewBox="0.00 0.00 358.00 140.00" xmlns="http://www.w3.org/2000/svg" xmlns:xlink="http://www.w3.org/1999/xlink">
<g id="graph0" class="graph" transform="scale(1 1) rotate(0) translate(4 136)">
<title>cNBT/nbt.h</title>
<polygon fill="white" stroke="white" points="-4,5 -4,-136 355,-136 355,5 -4,5"/>
<!-- Node1 -->
<g id="node1" class="node"><title>Node1</title>
<polygon fill="#bfbfbf" stroke="black" points="136.5,-112.5 136.5,-131.5 203.5,-131.5 203.5,-112.5 136.5,-112.5"/>
<text text-anchor="middle" x="170" y="-119.5" font-family="Helvetica,sans-Serif" font-size="10.00">cNBT/nbt.h</text>
</g>
<!-- Node2 -->
<g id="node2" class="node"><title>Node2</title>
<polygon fill="white" stroke="#bfbfbf" points="0,-56.5 0,-75.5 56,-75.5 56,-56.5 0,-56.5"/>
<text text-anchor="middle" x="28" y="-63.5" font-family="Helvetica,sans-Serif" font-size="10.00">stdbool.h</text>
</g>
<!-- Node1&#45;&gt;Node2 -->
<g id="edge1" class="edge"><title>Node1&#45;&gt;Node2</title>
<path fill="none" stroke="midnightblue" d="M147.5,-112.444C123.923,-103.478 86.6776,-89.314 60.036,-79.1827"/>
<polygon fill="midnightblue" stroke="midnightblue" points="60.9861,-75.7995 50.3951,-75.5164 58.4979,-82.3424 60.9861,-75.7995"/>
</g>
<!-- Node3 -->
<g id="node3" class="node"><title>Node3</title>
<polygon fill="white" stroke="#bfbfbf" points="243,-0.5 243,-19.5 295,-19.5 295,-0.5 243,-0.5"/>
<text text-anchor="middle" x="269" y="-7.5" font-family="Helvetica,sans-Serif" font-size="10.00">stddef.h</text>
</g>
<!-- Node1&#45;&gt;Node3 -->
<g id="edge2" class="edge"><title>Node1&#45;&gt;Node3</title>
<path fill="none" stroke="midnightblue" d="M148.946,-112.361C123.404,-100.629 85.7677,-78.5256 103,-56 118.662,-35.5264 188.708,-22.2 232.655,-15.693"/>
<polygon fill="midnightblue" stroke="midnightblue" points="233.276,-19.1398 242.679,-14.2593 232.285,-12.2103 233.276,-19.1398"/>
</g>
<!-- Node4 -->
<g id="node4" class="node"><title>Node4</title>
<polygon fill="white" stroke="#bfbfbf" points="112.5,-56.5 112.5,-75.5 161.5,-75.5 161.5,-56.5 112.5,-56.5"/>
<text text-anchor="middle" x="137" y="-63.5" font-family="Helvetica,sans-Serif" font-size="10.00">stdint.h</text>
</g>
<!-- Node1&#45;&gt;Node4 -->
<g id="edge3" class="edge"><title>Node1&#45;&gt;Node4</title>
<path fill="none" stroke="midnightblue" d="M164.551,-112.083C159.986,-104.613 153.332,-93.7244 147.707,-84.5199"/>
<polygon fill="midnightblue" stroke="midnightblue" points="150.549,-82.4588 142.348,-75.7511 144.576,-86.109 150.549,-82.4588"/>
</g>
<!-- Node5 -->
<g id="node5" class="node"><title>Node5</title>
<polygon fill="white" stroke="#bfbfbf" points="180,-56.5 180,-75.5 226,-75.5 226,-56.5 180,-56.5"/>
<text text-anchor="middle" x="203" y="-63.5" font-family="Helvetica,sans-Serif" font-size="10.00">stdio.h</text>
</g>
<!-- Node1&#45;&gt;Node5 -->
<g id="edge4" class="edge"><title>Node1&#45;&gt;Node5</title>
<path fill="none" stroke="midnightblue" d="M175.449,-112.083C180.014,-104.613 186.668,-93.7244 192.293,-84.5199"/>
<polygon fill="midnightblue" stroke="midnightblue" points="195.424,-86.109 197.652,-75.7511 189.451,-82.4588 195.424,-86.109"/>
</g>
<!-- Node6 -->
<g id="node6" class="node"><title>Node6</title>
<g id="a_node6"><a xlink:href="buffer_8h.html" target="_top" xlink:title="buffer.h">
<polygon fill="white" stroke="black" points="244,-56.5 244,-75.5 294,-75.5 294,-56.5 244,-56.5"/>
<text text-anchor="middle" x="269" y="-63.5" font-family="Helvetica,sans-Serif" font-size="10.00">buffer.h</text>
</a>
</g>
</g>
<!-- Node1&#45;&gt;Node6 -->
<g id="edge5" class="edge"><title>Node1&#45;&gt;Node6</title>
<path fill="none" stroke="midnightblue" d="M185.906,-112.324C201.638,-103.743 225.942,-90.486 244.209,-80.5224"/>
<polygon fill="midnightblue" stroke="midnightblue" points="246.03,-83.5157 253.133,-75.6545 242.678,-77.3704 246.03,-83.5157"/>
</g>
<!-- Node7 -->
<g id="node7" class="node"><title>Node7</title>
<g id="a_node7"><a xlink:href="list_8h.html" target="_top" xlink:title="list.h">
<polygon fill="white" stroke="black" points="312,-56.5 312,-75.5 350,-75.5 350,-56.5 312,-56.5"/>
<text text-anchor="middle" x="331" y="-63.5" font-family="Helvetica,sans-Serif" font-size="10.00">list.h</text>
</a>
</g>
</g>
<!-- Node1&#45;&gt;Node7 -->
<g id="edge7" class="edge"><title>Node1&#45;&gt;Node7</title>
<path fill="none" stroke="midnightblue" d="M195.511,-112.444C224.508,-102.718 271.739,-86.8764 302.081,-76.6997"/>
<polygon fill="midnightblue" stroke="midnightblue" points="303.304,-79.981 311.672,-73.4826 301.078,-73.3443 303.304,-79.981"/>
</g>
<!-- Node6&#45;&gt;Node3 -->
<g id="edge6" class="edge"><title>Node6&#45;&gt;Node3</title>
<path fill="none" stroke="midnightblue" d="M269,-56.083C269,-49.0059 269,-38.8611 269,-29.9865"/>
<polygon fill="midnightblue" stroke="midnightblue" points="272.5,-29.751 269,-19.7511 265.5,-29.7511 272.5,-29.751"/>
</g>
<!-- Node7&#45;&gt;Node3 -->
<g id="edge8" class="edge"><title>Node7&#45;&gt;Node3</title>
<path fill="none" stroke="midnightblue" d="M321.039,-56.324C311.873,-48.3414 298.063,-36.3128 286.972,-26.6529"/>
<polygon fill="midnightblue" stroke="midnightblue" points="288.982,-23.7624 279.143,-19.8339 284.385,-29.041 288.982,-23.7624"/>
</g>
</g>
</svg>
