<?xml version="1.0" encoding="UTF-8" standalone="no"?>
<!DOCTYPE svg PUBLIC "-//W3C//DTD SVG 1.1//EN"
 "http://www.w3.org/Graphics/SVG/1.1/DTD/svg11.dtd">
<!-- Generated by graphviz version 2.34.0 (20131031.2337)
 -->
<!-- Title: chunk Pages: 1 -->
<svg width="106pt" height="176pt"
 viewBox="0.00 0.00 106.00 176.00" xmlns="http://www.w3.org/2000/svg" xmlns:xlink="http://www.w3.org/1999/xlink">
<g id="graph0" class="graph" transform="scale(1 1) rotate(0) translate(4 172)">
<title>chunk</title>
<polygon fill="white" stroke="white" points="-4,4 -4,-172 102,-172 102,4 -4,4"/>
<!-- Node1 -->
<g id="node1" class="node"><title>Node1</title>
<polygon fill="#bfbfbf" stroke="black" points="6.5,-0.5 6.5,-19.5 49.5,-19.5 49.5,-0.5 6.5,-0.5"/>
<text text-anchor="middle" x="28" y="-7.5" font-family="Helvetica,sans-Serif" font-size="10.00">chunk</text>
</g>
<!-- Node2 -->
<g id="node2" class="node"><title>Node2</title>
<g id="a_node2"><a xlink:href="structnbt__node.html" target="_top" xlink:title="nbt_node">
<polygon fill="white" stroke="black" points="0,-78.5 0,-97.5 56,-97.5 56,-78.5 0,-78.5"/>
<text text-anchor="middle" x="28" y="-85.5" font-family="Helvetica,sans-Serif" font-size="10.00">nbt_node</text>
</a>
</g>
</g>
<!-- Node2&#45;&gt;Node1 -->
<g id="edge1" class="edge"><title>Node2&#45;&gt;Node1</title>
<path fill="none" stroke="#9a32cd" stroke-dasharray="5,2" d="M28,-68.2239C28,-52.6974 28,-31.3582 28,-19.6165"/>
<polygon fill="#9a32cd" stroke="#9a32cd" points="24.5001,-68.2818 28,-78.2818 31.5001,-68.2819 24.5001,-68.2818"/>
<text text-anchor="middle" x="53" y="-52" font-family="Helvetica,sans-Serif" font-size="10.00"> entities</text>
<text text-anchor="middle" x="53" y="-41" font-family="Helvetica,sans-Serif" font-size="10.00">tile_entities</text>
</g>
<!-- Node2&#45;&gt;Node2 -->
<g id="edge4" class="edge"><title>Node2&#45;&gt;Node2</title>
<path fill="none" stroke="#9a32cd" stroke-dasharray="5,2" d="M66.5533,-93.4491C71.0634,-92.4467 74,-90.6303 74,-88 74,-83.6836 66.0919,-81.5591 56.2994,-81.6266"/>
<polygon fill="#9a32cd" stroke="#9a32cd" points="65.9447,-89.9897 56.2994,-94.3734 66.5733,-96.9614 65.9447,-89.9897"/>
<text text-anchor="middle" x="85" y="-85.5" font-family="Helvetica,sans-Serif" font-size="10.00"> data</text>
</g>
<!-- Node3 -->
<g id="node3" class="node"><title>Node3</title>
<g id="a_node3"><a xlink:href="structlist__head.html" target="_top" xlink:title="list_head">
<polygon fill="white" stroke="black" points="0,-147.5 0,-166.5 56,-166.5 56,-147.5 0,-147.5"/>
<text text-anchor="middle" x="28" y="-154.5" font-family="Helvetica,sans-Serif" font-size="10.00">list_head</text>
</a>
</g>
</g>
<!-- Node3&#45;&gt;Node2 -->
<g id="edge2" class="edge"><title>Node3&#45;&gt;Node2</title>
<path fill="none" stroke="#9a32cd" stroke-dasharray="5,2" d="M28,-137.018C28,-124.034 28,-107.442 28,-97.5494"/>
<polygon fill="#9a32cd" stroke="#9a32cd" points="24.5001,-137.241 28,-147.241 31.5001,-137.241 24.5001,-137.241"/>
<text text-anchor="middle" x="40.5" y="-119.5" font-family="Helvetica,sans-Serif" font-size="10.00"> entry</text>
</g>
<!-- Node3&#45;&gt;Node3 -->
<g id="edge3" class="edge"><title>Node3&#45;&gt;Node3</title>
<path fill="none" stroke="#9a32cd" stroke-dasharray="5,2" d="M66.5533,-162.449C71.0634,-161.447 74,-159.63 74,-157 74,-152.684 66.0919,-150.559 56.2994,-150.627"/>
<polygon fill="#9a32cd" stroke="#9a32cd" points="65.9447,-158.99 56.2994,-163.373 66.5733,-165.961 65.9447,-158.99"/>
<text text-anchor="middle" x="86" y="-160" font-family="Helvetica,sans-Serif" font-size="10.00"> blink</text>
<text text-anchor="middle" x="86" y="-149" font-family="Helvetica,sans-Serif" font-size="10.00">flink</text>
</g>
</g>
</svg>
