<?xml version="1.0" encoding="UTF-8" standalone="no"?>
<!DOCTYPE svg PUBLIC "-//W3C//DTD SVG 1.1//EN"
 "http://www.w3.org/Graphics/SVG/1.1/DTD/svg11.dtd">
<!-- Generated by graphviz version 2.34.0 (20131031.2337)
 -->
<!-- Title: nbt_node Pages: 1 -->
<svg width="106pt" height="98pt"
 viewBox="0.00 0.00 106.00 98.00" xmlns="http://www.w3.org/2000/svg" xmlns:xlink="http://www.w3.org/1999/xlink">
<g id="graph0" class="graph" transform="scale(1 1) rotate(0) translate(4 94)">
<title>nbt_node</title>
<polygon fill="white" stroke="white" points="-4,4 -4,-94 102,-94 102,4 -4,4"/>
<!-- Node1 -->
<g id="node1" class="node"><title>Node1</title>
<polygon fill="#bfbfbf" stroke="black" points="0,-0.5 0,-19.5 56,-19.5 56,-0.5 0,-0.5"/>
<text text-anchor="middle" x="28" y="-7.5" font-family="Helvetica,sans-Serif" font-size="10.00">nbt_node</text>
</g>
<!-- Node1&#45;&gt;Node1 -->
<g id="edge3" class="edge"><title>Node1&#45;&gt;Node1</title>
<path fill="none" stroke="#9a32cd" stroke-dasharray="5,2" d="M66.5533,-15.4491C71.0634,-14.4467 74,-12.6303 74,-10 74,-5.68359 66.0919,-3.55911 56.2994,-3.62656"/>
<polygon fill="#9a32cd" stroke="#9a32cd" points="65.9447,-11.9897 56.2994,-16.3734 66.5733,-18.9614 65.9447,-11.9897"/>
<text text-anchor="middle" x="85" y="-7.5" font-family="Helvetica,sans-Serif" font-size="10.00"> data</text>
</g>
<!-- Node2 -->
<g id="node2" class="node"><title>Node2</title>
<g id="a_node2"><a xlink:href="structlist__head.html" target="_top" xlink:title="list_head">
<polygon fill="white" stroke="black" points="0,-69.5 0,-88.5 56,-88.5 56,-69.5 0,-69.5"/>
<text text-anchor="middle" x="28" y="-76.5" font-family="Helvetica,sans-Serif" font-size="10.00">list_head</text>
</a>
</g>
</g>
<!-- Node2&#45;&gt;Node1 -->
<g id="edge1" class="edge"><title>Node2&#45;&gt;Node1</title>
<path fill="none" stroke="#9a32cd" stroke-dasharray="5,2" d="M28,-59.0183C28,-46.034 28,-29.4419 28,-19.5494"/>
<polygon fill="#9a32cd" stroke="#9a32cd" points="24.5001,-59.2409 28,-69.2409 31.5001,-59.241 24.5001,-59.2409"/>
<text text-anchor="middle" x="40.5" y="-41.5" font-family="Helvetica,sans-Serif" font-size="10.00"> entry</text>
</g>
<!-- Node2&#45;&gt;Node2 -->
<g id="edge2" class="edge"><title>Node2&#45;&gt;Node2</title>
<path fill="none" stroke="#9a32cd" stroke-dasharray="5,2" d="M66.5533,-84.4491C71.0634,-83.4467 74,-81.6303 74,-79 74,-74.6836 66.0919,-72.5591 56.2994,-72.6266"/>
<polygon fill="#9a32cd" stroke="#9a32cd" points="65.9447,-80.9897 56.2994,-85.3734 66.5733,-87.9614 65.9447,-80.9897"/>
<text text-anchor="middle" x="86" y="-82" font-family="Helvetica,sans-Serif" font-size="10.00"> blink</text>
<text text-anchor="middle" x="86" y="-71" font-family="Helvetica,sans-Serif" font-size="10.00">flink</text>
</g>
</g>
</svg>
